#!OML:ASF G:\JayActor3\Patient Classification 1\Patient 1\Session 6\male.ASF
:FULLY-SPECIFIED
:DEGREES
2201
root 2.41153 16.4549 -21.2324 169.67 -38.3702 -171.369
lowerback 3.33096 2.76848 1.68771
upperback -2.04471 3.65875 -2.44016
thorax -3.7098 1.73098 -3.69649
lowerneck 5.41208 12.3595 6.24917
upperneck 14.628 15.5937 3.69474
head 4.1181 7.83436 0.503112
rclavicle -5.1684e-015 -6.83819e-014
rhumerus -27.8415 58.2841 -64.2152
rradius 102.765
rwrist -67.6548
rhand -27.803 -7.4349
rfingers 7.12502
rthumb -1.19566 -37.4113
lclavicle -5.1684e-015 -6.83819e-014
lhumerus 20.0115 -35.2858 57.7929
lradius 126.532
lwrist 24.1093
lhand -3.54974 8.23309
lfingers 7.12502
lthumb 22.1863 36.9799
rfemur -9.5372 1.45654 13.2972
rtibia 33.7587
rfoot -11.5626 -13.3048
rtoes 4.73539
lfemur 1.8625 11.0326 -12.3153
ltibia 21.4862
lfoot -20.4637 17.5857
ltoes 6.22116
2202
root 2.40249 16.4562 -21.2183 169.625 -38.3022 -171.306
lowerback 3.29077 2.73778 1.67703
upperback -2.00258 3.61882 -2.41958
thorax -3.64827 1.71363 -3.66289
lowerneck 5.53484 12.3811 6.18182
upperneck 14.573 15.6278 3.69857
head 4.06902 7.84482 0.502839
rclavicle -9.93923e-014 1.43125e-014
rhumerus -27.7266 58.3351 -64.1055
rradius 102.777
rwrist -67.6437
rhand -27.8086 -7.40701
rfingers 7.12502
rthumb -1.20105 -37.3834
lclavicle -9.93923e-014 1.43125e-014
lhumerus 20.5506 -34.9946 57.5732
lradius 126.897
lwrist 24.1532
lhand -3.47983 8.40239
lfingers 7.12502
lthumb 22.2534 37.1412
rfemur -9.57704 1.49278 13.305
rtibia 33.7551
rfoot -11.445 -13.3775
rtoes 4.72044
lfemur 1.85984 11.1233 -12.2992
ltibia 21.4925
lfoot -20.4601 17.5686
ltoes 6.1874
2203
root 2.3937 16.4573 -21.2042 169.584 -38.2387 -171.245
lowerback 3.25417 2.69011 1.65383
upperback -1.96848 3.55642 -2.38115
thorax -3.60056 1.68532 -3.60318
lowerneck 5.67971 12.417 6.0664
upperneck 14.5179 15.6816 3.69804
head 4.01195 7.86204 0.506775
rclavicle 5.46658e-014 9.54166e-015
rhumerus -27.5702 58.4539 -63.955
rradius 102.794
rwrist -67.6361
rhand -27.8101 -7.39372
rfingers 7.12502
rthumb -1.20246 -37.3701
lclavicle 5.46658e-014 9.54166e-015
lhumerus 21.0262 -34.6603 57.3919
lradius 127.253
lwrist 24.1919
lhand -3.40553 8.54858
lfingers 7.12502
lthumb 22.3247 37.2788
rfemur -9.61897 1.52866 13.3118
rtibia 33.7484
rfoot -11.3275 -13.4566
rtoes 4.72167
lfemur 1.85101 11.2063 -12.2878
ltibia 21.5023
lfoot -20.4602 17.5554
ltoes 6.17241
2204
root 2.38525 16.4583 -21.1903 169.551 -38.1815 -171.195
lowerback 3.23124 2.63125 1.61449
upperback -1.94643 3.47851 -2.3344
thorax -3.57548 1.64916 -3.52632
lowerneck 5.83668 12.4582 5.92785
upperneck 14.4689 15.7424 3.68808
head 3.95382 7.88095 0.510528
rclavicle -6.7388e-014 3.81667e-014
rhumerus -27.4026 58.6184 -63.7947
rradius 102.812
rwrist -67.6301
rhand -27.806 -7.37607
rfingers 7.12502
rthumb -1.19853 -37.3524
lclavicle -6.7388e-014 3.81667e-014
lhumerus 21.4513 -34.3041 57.235
lradius 127.601
lwrist 24.2158
lhand -3.33805 8.69626
lfingers 7.12502
lthumb 22.3895 37.4188
rfemur -9.66329 1.56338 13.3112
rtibia 33.7408
rfoot -11.2144 -13.5405
rtoes 4.76546
lfemur 1.83733 11.288 -12.286
ltibia 21.5119
lfoot -20.4552 17.5463
ltoes 6.13787
2205
root 2.37703 16.4593 -21.1763 169.53 -38.1314 -171.161
lowerback 3.22734 2.57217 1.56282
upperback -1.93773 3.3993 -2.29148
thorax -3.57531 1.61186 -3.44807
lowerneck 5.99165 12.495 5.7911
upperneck 14.435 15.7956 3.67372
head 3.90218 7.89593 0.513285
rclavicle 1.70955e-014 -5.40694e-014
rhumerus -27.2671 58.7923 -63.6612
rradius 102.834
rwrist -67.6281
rhand -27.794 -7.36375
rfingers 7.12502
rthumb -1.18693 -37.3402
lclavicle 1.70955e-014 -5.40694e-014
lhumerus 21.8537 -33.9534 57.0851
lradius 127.942
lwrist 24.2302
lhand -3.25355 8.84506
lfingers 7.12502
lthumb 22.4706 37.5578
rfemur -9.71048 1.59205 13.2975
rtibia 33.7352
rfoot -11.1047 -13.6262
rtoes 4.81099
lfemur 1.82234 11.3668 -12.2987
ltibia 21.518
lfoot -20.4462 17.5397
ltoes 6.09441
2206
root 2.36896 16.4601 -21.1626 169.515 -38.0847 -171.137
lowerback 3.23475 2.52386 1.5091
upperback -1.93294 3.3336 -2.26236
thorax -3.58374 1.58084 -3.38445
lowerneck 6.12372 12.5169 5.6842
upperneck 14.4152 15.8278 3.6516
head 3.86327 7.90212 0.511335
rclavicle 8.50798e-014 -6.52014e-014
rhumerus -27.1749 58.9356 -63.5655
rradius 102.858
rwrist -67.6267
rhand -27.7736 -7.3443
rfingers 7.12502
rthumb -1.16724 -37.3209
lclavicle 8.50798e-014 -6.52014e-014
lhumerus 22.2754 -33.626 56.9191
lradius 128.271
lwrist 24.25
lhand -3.17788 8.99346
lfingers 7.12502
lthumb 22.5432 37.6974
rfemur -9.76058 1.61485 13.2749
rtibia 33.7336
rfoot -10.9918 -13.7165
rtoes 4.81164
lfemur 1.81045 11.446 -12.3209
ltibia 21.5167
lfoot -20.4312 17.5351
ltoes 6.03944
2207
root 2.36088 16.4609 -21.149 169.505 -38.044 -171.125
lowerback 3.25002 2.48395 1.45493
upperback -1.92784 3.27835 -2.24712
thorax -3.59465 1.5547 -3.33588
lowerneck 6.23058 12.5263 5.60428
upperneck 14.4068 15.8426 3.62251
head 3.83621 7.90132 0.505518
rclavicle 6.38099e-014 -3.02153e-014
rhumerus -27.0952 59.0531 -63.4873
rradius 102.876
rwrist -67.6347
rhand -27.752 -7.32186
rfingers 7.12502
rthumb -1.14638 -37.2985
lclavicle 6.38099e-014 -3.02153e-014
lhumerus 22.7166 -33.3164 56.7347
lradius 128.589
lwrist 24.2808
lhand -3.11862 9.15748
lfingers 7.12502
lthumb 22.6001 37.8545
rfemur -9.80766 1.63244 13.242
rtibia 33.7364
rfoot -10.8836 -13.8073
rtoes 4.7968
lfemur 1.80632 11.5246 -12.3524
ltibia 21.5067
lfoot -20.4101 17.5277
ltoes 5.9797
2208
root 2.3528 16.4618 -21.1356 169.496 -38.0084 -171.117
lowerback 3.26844 2.46511 1.4101
upperback -1.91928 3.25052 -2.25502
thorax -3.60002 1.54168 -3.31805
lowerneck 6.31055 12.5082 5.58114
upperneck 14.4003 15.8218 3.58192
head 3.82084 7.88597 0.489576
rclavicle -1.02374e-013 2.38542e-014
rhumerus -27.0687 59.0988 -63.4596
rradius 102.892
rwrist -67.6431
rhand -27.7345 -7.31233
rfingers 7.12502
rthumb -1.12946 -37.2891
lclavicle -1.02374e-013 2.38542e-014
lhumerus 23.2097 -33.0518 56.5206
lradius 128.895
lwrist 24.3432
lhand -3.07426 9.3427
lfingers 7.12502
lthumb 22.6427 38.0345
rfemur -9.85062 1.64979 13.2056
rtibia 33.7417
rfoot -10.7856 -13.8966
rtoes 4.81225
lfemur 1.80715 11.601 -12.3874
ltibia 21.49
lfoot -20.3846 17.5161
ltoes 5.92886
2209
root 2.34462 16.4627 -21.1224 169.483 -37.976 -171.109
lowerback 3.28314 2.43949 1.36455
upperback -1.90847 3.21396 -2.25641
thorax -3.60189 1.52454 -3.29228
lowerneck 6.39662 12.4942 5.5404
upperneck 14.3842 15.8081 3.532
head 3.80019 7.87305 0.472482
rclavicle 7.15625e-014 -4.29375e-014
rhumerus -27.0018 59.1686 -63.4014
rradius 102.905
rwrist -67.6618
rhand -27.7195 -7.31647
rfingers 7.12502
rthumb -1.11497 -37.2933
lclavicle 7.15625e-014 -4.29375e-014
lhumerus 23.6699 -32.7671 56.322
lradius 129.194
lwrist 24.4304
lhand -3.04115 9.54349
lfingers 7.12502
lthumb 22.6745 38.2314
rfemur -9.88618 1.66801 13.1705
rtibia 33.7469
rfoot -10.6974 -13.9844
rtoes 4.86021
lfemur 1.81423 11.6756 -12.421
ltibia 21.4699
lfoot -20.3607 17.498
ltoes 5.8977
